<svg width="134" height="134" viewBox="0 0 134 134" fill="none" xmlns="http://www.w3.org/2000/svg">
<rect width="134" height="134" rx="15" fill="white"/>
<path d="M72.4108 49.043C75.8274 43.0716 84.3689 43.0716 87.7855 49.043L101.977 73.8469C105.394 79.8182 101.123 87.2824 94.2901 87.2824H65.9061C59.0729 87.2824 54.8022 79.8182 58.2188 73.8469L72.4108 49.043Z" fill="#89E8F4"/>
<path d="M46.7595 48.5262C50.0447 42.7846 58.2577 42.7846 61.5429 48.5262L76.3262 74.3636C79.6114 80.1053 75.5049 87.2824 68.9346 87.2824H39.3679C32.7975 87.2824 28.691 80.1053 31.9762 74.3636L46.7595 48.5262Z" fill="#CFAFFE"/>
<path d="M61.4735 62.1339C64.3645 57.0813 71.5919 57.0813 74.4829 62.1339L83.7964 78.4115C86.6873 83.4641 83.0736 89.78 77.2917 89.78H58.6647C52.8827 89.78 49.269 83.4642 52.16 78.4115L61.4735 62.1339Z" fill="#93A3F9"/>
</svg>
